<svg xmlns="http://www.w3.org/2000/svg" viewBox="0 0 512 512" fill="none">
  <defs>
    <linearGradient id="g" x1="0%" y1="0%" x2="100%" y2="100%">
      <stop offset="0%" stop-color="#34d399"/>
      <stop offset="100%" stop-color="#059669"/>
    </linearGradient>
  </defs>
  <rect width="512" height="512" rx="128" fill="url(#g)"/>
  <path d="M256 140c-64 0-116 52-116 116 0 44 25 82 61 101-12 20-30 34-52 40-8 2-14 10-14 19v24c0 11 9 20 20 20h202c11 0 20-9 20-20v-24c0-9-6-17-14-19-22-6-40-20-52-40 36-19 61-57 61-101 0-64-52-116-116-116z" fill="white" opacity=".95"/>
  <circle cx="256" cy="256" r="48" fill="white" opacity=".8"/>
</svg>
